<?xml version="1.0" encoding="UTF-8" standalone="no"?>
<svg
   xmlns:dc="http://purl.org/dc/elements/1.1/"
   xmlns:cc="http://creativecommons.org/ns#"
   xmlns:rdf="http://www.w3.org/1999/02/22-rdf-syntax-ns#"
   xmlns:svg="http://www.w3.org/2000/svg"
   xmlns="http://www.w3.org/2000/svg"
   id="svg8"
   version="1.1"
   viewBox="0 0 54.117077 51.880772"
   height="51.880772mm"
   width="54.117077mm">
  <defs
     id="defs2" />
  <metadata
     id="metadata5">
    <rdf:RDF>
      <cc:Work
         rdf:about="">
        <dc:format>image/svg+xml</dc:format>
        <dc:type
           rdf:resource="http://purl.org/dc/dcmitype/StillImage" />
        <dc:title></dc:title>
      </cc:Work>
    </rdf:RDF>
  </metadata>
  <g
     transform="translate(-63.583355,-153.99875)"
     id="layer1">
    <ellipse
       ry="70.739372"
       rx="71.302284"
       cy="227.02362"
       cx="139.83948"
       id="path5103"
       style="fill:#ffffff;fill-opacity:1;stroke:none;stroke-width:2.8850174;stroke-miterlimit:4;stroke-dasharray:none;stroke-opacity:1" />
    <circle
       style="fill:none;fill-opacity:1;stroke:#d2a02e;stroke-width:1.9021076;stroke-miterlimit:4;stroke-dasharray:none;stroke-opacity:1"
       r="71.895134"
       cy="226.84494"
       cx="139.99704"
       id="path21" />
    <circle
       r="62.757557"
       cy="226.84494"
       cx="139.99704"
       id="path831"
       style="fill:#59617d;fill-opacity:1;stroke:none;stroke-width:3.23556805;stroke-miterlimit:4;stroke-dasharray:none;stroke-opacity:1" />
    <rect
       ry="6.0044031"
       y="227.38965"
       x="63.583355"
       height="28.894299"
       width="151.9724"
       id="rect4536"
       style="fill:#ffffff;fill-opacity:1;stroke:none;stroke-width:2.51172996;stroke-miterlimit:4;stroke-dasharray:none;stroke-opacity:1" />
    <text
       transform="scale(0.93758902,1.0665654)"
       id="text4540"
       y="230.21643"
       x="86.473961"
       style="font-style:normal;font-variant:normal;font-weight:bold;font-stretch:normal;font-size:26.88743782px;line-height:1.25;font-family:'Courier New';-inkscape-font-specification:'Courier New, Bold';font-variant-ligatures:normal;font-variant-caps:normal;font-variant-numeric:normal;font-feature-settings:normal;text-align:start;letter-spacing:0px;word-spacing:0px;writing-mode:lr-tb;text-anchor:start;fill:#d6a83f;fill-opacity:1;stroke:none;stroke-width:0.84023243"
       xml:space="preserve"><tspan
         style="font-style:normal;font-variant:normal;font-weight:bold;font-stretch:normal;font-size:26.88743782px;font-family:'Courier New';-inkscape-font-specification:'Courier New, Bold';font-variant-ligatures:normal;font-variant-caps:normal;font-variant-numeric:normal;font-feature-settings:normal;text-align:start;writing-mode:lr-tb;text-anchor:start;fill:#d6a83f;fill-opacity:1;stroke-width:0.84023243"
         y="230.21643"
         x="86.473961"
         id="tspan4538">yegwheel</tspan></text>
    <path
       id="path4546-4"
       d="m 76.007618,221.75762 21.637198,-0.15557 6e-6,-18.38851 13.885188,3e-5 -0.0228,18.1459 3.40025,0.24263 -0.18767,-26.64454 h 6.00436 l 0.18759,15.72937 3.56512,-0.15557 -0.18759,-31.52312 10.5077,-0.18759 0.56293,37.90282 h 3.75273 l -0.18759,-30.02204 16.13685,0.37529 v 39.4039 h 3.94037 l -0.18759,-30.20966 8.63131,6e-5 0.18759,24.95579 2.75957,0.15558 -0.055,-7.09805 16.80964,3e-5 -6e-5,7.50549 17.07505,-0.18759 -0.18759,6.00439 -126.280112,-0.37527 z"
       style="fill:#ffffff;fill-opacity:1;stroke:#ffffff;stroke-width:0.74300694px;stroke-linecap:butt;stroke-linejoin:miter;stroke-opacity:1" />
    <path
       id="path4563-7"
       d="m 129.78405,210.99424 0.0469,5.11311 2.57999,6e-5 6e-5,-5.16007 z"
       style="fill:#59617d;fill-opacity:1;stroke:#59617d;stroke-width:0.74300694px;stroke-linecap:butt;stroke-linejoin:miter;stroke-opacity:1" />
    <path
       id="path4563-6-1"
       d="m 129.69192,201.61567 0.0469,5.11311 2.58,6e-5 5e-5,-5.16007 z"
       style="fill:#59617d;fill-opacity:1;stroke:#59617d;stroke-width:0.74300694px;stroke-linecap:butt;stroke-linejoin:miter;stroke-opacity:1" />
    <g
       transform="matrix(2.8082153,0,0,2.8082153,-114.9724,-278.46289)"
       id="g4662">
      <path
         style="fill:#59617d;fill-opacity:1;stroke:#59617d;stroke-width:0.26458332px;stroke-linecap:butt;stroke-linejoin:miter;stroke-opacity:1"
         d="m 94.340755,167.14645 0.0167,1.82077 0.91873,2e-5 2e-5,-1.83749 z"
         id="path4563-4-8" />
    </g>
    <rect
       y="267.68039"
       x="114.31683"
       height="3.4125919"
       width="49.850529"
       id="rect4682"
       style="fill:#ffffff;fill-opacity:1;stroke:#ffffff;stroke-width:1.37382746;stroke-miterlimit:4;stroke-dasharray:none;stroke-opacity:1" />
  </g>
</svg>
